# xmcd
#
# Track frame offsets:
#	150
#	13767
#	27381
#	41344
#	54618
#	76578
#	94538
#	105515
#	122527
#	140041
#	186875
#
# Disc length: 2746 seconds
#
# Revision: 0
# Processed by: cddbd v1.5.2PL0 Copyright (c) Steve Scherf et al.
# Submitted via: audiograbber 1.80
#
DISCID=830ab80b
DTITLE=Johnny Cash - In Prague Live
DYEAR=1900
DGENRE=
TTITLE0=Ring Of Fire
TTITLE1=Folsom Prison Blues
TTITLE2=I Still Miss Someone
TTITLE3=Big River
TTITLE4=IRide an Old Paint/Streets Of Laredo
TTITLE5=Sunday Morning Coming Down
TTITLE6=I Walk The Line
TTITLE7=Last Date
TTITLE8=City New Orleans
TTITLE9=Hey Porter/Wreck Of The Old '97/Casey Jones/Orange Blossom Special
TTITLE10=Wabash Cannonball
EXTD=
EXTT0=
EXTT1=
EXTT2=
EXTT3=
EXTT4=
EXTT5=
EXTT6=
EXTT7=
EXTT8=
EXTT9=
EXTT10=
PLAYORDER=
